<svg xmlns="http://www.w3.org/2000/svg" xmlns:xlink="http://www.w3.org/1999/xlink" version="1.1" x="0px" y="0px" viewBox="0 0 52 65" style="enable-background:new 0 0 52 52;" xml:space="preserve"><style type="text/css">
	.st0{fill:none;stroke:#000000;stroke-width:2;stroke-linecap:round;stroke-linejoin:round;stroke-miterlimit:10;}
</style><g><g><path d="M26,50C12.7666016,50,2,39.2333984,2,26S12.7666016,2,26,2s24,10.7666016,24,24S39.2333984,50,26,50z M26,4    C13.8691406,4,4,13.8691406,4,26s9.8691406,22,22,22s22-9.8691406,22-22S38.1308594,4,26,4z"/></g><g><path d="M26,46c-0.5527344,0-1-0.4472656-1-1v-1.8779297c0-0.5527344,0.4472656-1,1-1s1,0.4472656,1,1V45    C27,45.5527344,26.5527344,46,26,46z"/></g><g><path d="M26,10.0966797c-0.5527344,0-1-0.4472656-1-1V7c0-0.5527344,0.4472656-1,1-1s1,0.4472656,1,1v2.0966797    C27,9.6494141,26.5527344,10.0966797,26,10.0966797z"/></g><g><path d="M12.5654297,40.4345703c-0.2558594,0-0.5117188-0.0976563-0.7070313-0.2929688    c-0.390625-0.390625-0.390625-1.0234375,0-1.4140625l1.3271484-1.3271484c0.390625-0.390625,1.0234375-0.390625,1.4140625,0    s0.390625,1.0234375,0,1.4140625l-1.3271484,1.3271484C13.0771484,40.3369141,12.8212891,40.4345703,12.5654297,40.4345703z"/></g><g><path d="M37.9521484,15.0478516c-0.2558594,0-0.5117188-0.0976563-0.7070313-0.2929688    c-0.390625-0.390625-0.390625-1.0234375,0-1.4140625l1.4833984-1.4833984c0.390625-0.390625,1.0234375-0.390625,1.4140625,0    s0.390625,1.0234375,0,1.4140625l-1.4833984,1.4833984C38.4638672,14.9501953,38.2080078,15.0478516,37.9521484,15.0478516z"/></g><g><path d="M8.8779297,27H7c-0.5527344,0-1-0.4472656-1-1s0.4472656-1,1-1h1.8779297c0.5527344,0,1,0.4472656,1,1    S9.4306641,27,8.8779297,27z"/></g><g><path d="M45,27h-2.0966797c-0.5527344,0-1-0.4472656-1-1s0.4472656-1,1-1H45c0.5527344,0,1,0.4472656,1,1S45.5527344,27,45,27z"/></g><g><path d="M13.8925781,14.8916016c-0.2558594,0-0.5117188-0.0976563-0.7070313-0.2929688l-1.3271484-1.3271484    c-0.390625-0.390625-0.390625-1.0234375,0-1.4140625s1.0234375-0.390625,1.4140625,0l1.3271484,1.3271484    c0.390625,0.390625,0.390625,1.0234375,0,1.4140625C14.4042969,14.7939453,14.1484375,14.8916016,13.8925781,14.8916016z"/></g><g><path d="M39.4355469,40.4345703c-0.2558594,0-0.5117188-0.0976563-0.7070313-0.2929688l-1.4833984-1.4833984    c-0.390625-0.390625-0.390625-1.0234375,0-1.4140625s1.0234375-0.390625,1.4140625,0l1.4833984,1.4833984    c0.390625,0.390625,0.390625,1.0234375,0,1.4140625C39.9472656,40.3369141,39.6914063,40.4345703,39.4355469,40.4345703z"/></g><g><path d="M32,27h-6c-0.5527344,0-1-0.4472656-1-1v-9c0-0.5527344,0.4472656-1,1-1s1,0.4472656,1,1v8h5c0.5527344,0,1,0.4472656,1,1    S32.5527344,27,32,27z"/></g></g><text x="0" y="67" fill="#000000" font-size="5px" font-weight="bold" font-family="'Helvetica Neue', Helvetica, Arial-Unicode, Arial, Sans-serif">Created by Dinosoft Labs</text><text x="0" y="72" fill="#000000" font-size="5px" font-weight="bold" font-family="'Helvetica Neue', Helvetica, Arial-Unicode, Arial, Sans-serif">from the Noun Project</text></svg>