<svg xmlns="http://www.w3.org/2000/svg" xmlns:xlink="http://www.w3.org/1999/xlink" version="1.1" x="0px" y="0px" viewBox="0 0 52 65" style="enable-background:new 0 0 52 52;" xml:space="preserve"><style type="text/css">
	.st0{fill:none;stroke:#000000;stroke-width:2;stroke-linecap:round;stroke-linejoin:round;stroke-miterlimit:10;}
</style><g><g><path d="M15.0244141,10.3789568H9c-0.3994141,0-0.7607422-0.2373047-0.9179688-0.6040039    C7.9238281,9.4082537,7.9990234,8.9824724,8.2734375,8.6924334l6.0244141-6.3789063    c0.2802734-0.2973633,0.7177734-0.3945314,1.0957031-0.2426758c0.3808594,0.1513672,0.6308594,0.5195313,0.6308594,0.9291992    v6.3789063C16.0244141,9.9312029,15.5771484,10.3789568,15.0244141,10.3789568z M11.3203125,8.3789568h2.7041016V5.5151873    L11.3203125,8.3789568z"/></g><g><path d="M43,50.0000496H9c-0.5527344,0-1-0.4477539-1-1V9.3789568c0-0.2553711,0.0976563-0.5009766,0.2734375-0.6865234    l6.0244141-6.3789063c0.1884766-0.2001953,0.4511719-0.3134766,0.7265625-0.3134766H43c0.5527344,0,1,0.4477539,1,1v46    C44,49.5522957,43.5527344,50.0000496,43,50.0000496z M10,48.0000496h32v-44H15.4550781L10,9.7764177V48.0000496z"/></g><g><path d="M28.9091797,20.0000496c-0.2128906,0-0.4238281-0.0678711-0.6005859-0.2006836    c-0.3027344-0.2270508-0.4511719-0.6054688-0.3837891-0.9780273l0.4931641-2.7148438l-2.0957031-1.9335928    c-0.2851563-0.262207-0.3925781-0.6650391-0.2763672-1.0341797c0.1162109-0.3696289,0.4345703-0.6386719,0.8183594-0.6914063    l2.9433594-0.4047852l1.3056641-2.5048828c0.34375-0.6611328,1.4296875-0.6611328,1.7734375,0l1.3056641,2.5048828    l2.9433594,0.4047852c0.3837891,0.0527344,0.7021484,0.3217773,0.8183594,0.6914063    c0.1162109,0.3691406,0.0087891,0.7719727-0.2763672,1.0341797l-2.0957031,1.9335928l0.4921875,2.715332    c0.0673828,0.3720703-0.0810547,0.7504883-0.3837891,0.9780273c-0.3027344,0.2270508-0.7089844,0.2631836-1.0458984,0.0957031    L32,18.5796394l-2.6455078,1.315918C29.2138672,19.9653816,29.0615234,20.0000496,28.9091797,20.0000496z M32,16.4629402    c0.1523438,0,0.3046875,0.034668,0.4453125,0.1044922l1.3056641,0.6494141l-0.2353516-1.2944326    c-0.0605469-0.3369141,0.0546875-0.6811523,0.3066406-0.9130859l0.9423828-0.8691406l-1.3554688-0.1865234    c-0.3212891-0.0439453-0.6015625-0.2412109-0.7509766-0.5283203L32,12.1631365l-0.6582031,1.262207    c-0.1494141,0.2871094-0.4296875,0.484375-0.7509766,0.5283203l-1.3554688,0.1865234l0.9423828,0.8691406    c0.2519531,0.2319336,0.3671875,0.5766602,0.3066406,0.9135742l-0.2353516,1.2939444l1.3056641-0.6494141    C31.6953125,16.4976082,31.8476563,16.4629402,32,16.4629402z"/></g><g><path d="M38,33.0000496H14c-0.5527344,0-1-0.4477539-1-1s0.4472656-1,1-1h24c0.5527344,0,1,0.4477539,1,1    S38.5527344,33.0000496,38,33.0000496z"/></g><g><path d="M38,38.0000496H14c-0.5527344,0-1-0.4477539-1-1s0.4472656-1,1-1h24c0.5527344,0,1,0.4477539,1,1    S38.5527344,38.0000496,38,38.0000496z"/></g><g><path d="M26,43.0000496H14c-0.5527344,0-1-0.4477539-1-1s0.4472656-1,1-1h12c0.5527344,0,1,0.4477539,1,1    S26.5527344,43.0000496,26,43.0000496z"/></g></g><text x="0" y="67" fill="#000000" font-size="5px" font-weight="bold" font-family="'Helvetica Neue', Helvetica, Arial-Unicode, Arial, Sans-serif">Created by Dinosoft Labs</text><text x="0" y="72" fill="#000000" font-size="5px" font-weight="bold" font-family="'Helvetica Neue', Helvetica, Arial-Unicode, Arial, Sans-serif">from the Noun Project</text></svg>