<svg xmlns="http://www.w3.org/2000/svg" xmlns:xlink="http://www.w3.org/1999/xlink" version="1.1" x="0px" y="0px" viewBox="0 0 52 65" style="enable-background:new 0 0 52 52;" xml:space="preserve"><style type="text/css">
	.st0{fill:none;stroke:#000000;stroke-width:2;stroke-linecap:round;stroke-linejoin:round;stroke-miterlimit:10;}
</style><g><g><g><path d="M25.9995117,50c-0.1625977,0-0.3266602-0.0390625-0.4780273-0.1220703     c-0.4423828-0.2412109-0.6362305-0.7734375-0.4526367-1.2431641l12.4008789-31.6425781V4H27.1665039     c-0.5522461,0-1-0.4472656-1-1s0.4477539-1,1-1h12.0927734c0.3286133,0,0.6362305,0.1611328,0.8232422,0.4316406     l9.7407227,14.1162109c0.2402344,0.3486328,0.2353516,0.8105469-0.012207,1.1533203l-23,31.8837891     C26.6171875,49.8535156,26.3115234,50,25.9995117,50z M39.4697266,5.0654297v12.1152344     c0,0.125-0.0234375,0.2490234-0.0688477,0.3652344l-9.5825195,24.4521484l17.9580078-24.8945313L39.4697266,5.0654297z"/></g><g><path d="M49,18.1162109H25c-0.5522461,0-1-0.4472656-1-1s0.4477539-1,1-1h24c0.5522461,0,1,0.4472656,1,1     S49.5522461,18.1162109,49,18.1162109z"/></g><g><path d="M38.4702148,18.1806641c-0.2939453,0-0.5849609-0.1289063-0.7822266-0.3769531L26.6845703,4h-1.8510742     c-0.5522461,0-1-0.4472656-1-1s0.4477539-1,1-1h2.3330078c0.3041992,0,0.5922852,0.1386719,0.7822266,0.3769531     l11.3027344,14.1806641c0.3442383,0.4316406,0.2734375,1.0605469-0.1582031,1.4052734     C38.9086914,18.109375,38.6889648,18.1806641,38.4702148,18.1806641z"/></g></g><g><g><path d="M26.0004883,50c-0.3120117,0-0.6176758-0.1464844-0.8115234-0.4150391l-23-31.8837891     c-0.2475586-0.3427734-0.2524414-0.8046875-0.012207-1.1533203l9.7407227-14.1162109     C12.1044922,2.1611328,12.4121094,2,12.7407227,2h12.0927734c0.5522461,0,1,0.4472656,1,1s-0.4477539,1-1,1H14.5297852     v12.9921875l12.4013672,31.6425781c0.1835938,0.4697266-0.0102539,1.0019531-0.4526367,1.2431641     C26.3276367,49.9609375,26.1630859,50,26.0004883,50z M4.2236328,17.1035156l17.9580078,24.8935547l-9.5830078-24.4511719     c-0.0454102-0.1162109-0.0688477-0.2402344-0.0688477-0.3652344V5.0664063L4.2236328,17.1035156z"/></g><g><path d="M25,18.1162109H3c-0.5522461,0-1-0.4472656-1-1s0.4477539-1,1-1h22c0.5522461,0,1,0.4472656,1,1     S25.5522461,18.1162109,25,18.1162109z"/></g><g><path d="M13.5292969,18.1806641c-0.21875,0-0.4384766-0.0712891-0.6230469-0.2177734     c-0.4316406-0.3447266-0.5024414-0.9736328-0.1582031-1.4052734L24.0517578,2.3769531     C24.3959961,1.9443359,25.0244141,1.875,25.4570313,2.2177734c0.4316406,0.3447266,0.5024414,0.9736328,0.1582031,1.4052734     L14.3115234,17.8037109C14.1142578,18.0517578,13.8232422,18.1806641,13.5292969,18.1806641z"/></g></g><g><path d="M26.0009766,50c-0.1303711,0-0.2602539-0.0205078-0.3803711-0.0703125    c-0.1298828-0.0595703-0.2397461-0.1298828-0.3295898-0.2197266C25.1005859,49.5195313,25.0009766,49.2695313,25.0009766,49    c0-0.2597656,0.1098633-0.5205078,0.2900391-0.7099609c0.2797852-0.2802734,0.7197266-0.3603516,1.0898438-0.2099609    c0.1201172,0.0498047,0.2299805,0.1201172,0.3300781,0.2099609C26.890625,48.4794922,27.0009766,48.7402344,27.0009766,49    c0,0.2695313-0.1000977,0.5195313-0.2900391,0.7099609C26.5209961,49.8994141,26.2709961,50,26.0009766,50z"/></g></g><text x="0" y="67" fill="#000000" font-size="5px" font-weight="bold" font-family="'Helvetica Neue', Helvetica, Arial-Unicode, Arial, Sans-serif">Created by Dinosoft Labs</text><text x="0" y="72" fill="#000000" font-size="5px" font-weight="bold" font-family="'Helvetica Neue', Helvetica, Arial-Unicode, Arial, Sans-serif">from the Noun Project</text></svg>