<svg xmlns="http://www.w3.org/2000/svg" xmlns:xlink="http://www.w3.org/1999/xlink" version="1.1" x="0px" y="0px" viewBox="0 0 52 65" style="enable-background:new 0 0 52 52;" xml:space="preserve"><style type="text/css">
	.st0{fill:none;stroke:#000000;stroke-width:2;stroke-linecap:round;stroke-linejoin:round;stroke-miterlimit:10;}
</style><g><g><g><path d="M26.5932388,29.324192c-4.6015625,0-6.8188477-4.2441406-6.9145508-4.4311523     c-2.4467773-3.918457-2.1699219-9.3227549-2.1572266-9.5512705c0.0166016-0.2895508,0.1586914-0.5581055,0.3886719-0.7353516     c2.9946289-2.3041992,4.4287109-4.7514648,4.4428711-4.7763672c0.1689453-0.2919922,0.4746094-0.4799805,0.8115234-0.4985352     c0.3334961-0.0253906,0.6611328,0.1333008,0.8613281,0.4057617c3.565918,4.855957,10.5063477,5.6196289,10.5761719,5.6269531     c0.5170898,0.0527344,0.9077148,0.4936523,0.8979492,1.0136728l-0.0600586,3.1801758     c-0.3183594,3.6489258-2.0751953,6.090332-3.4931641,7.5078125c-1.331543,1.3325195-3.0522461,2.128418-4.84375,2.2412109     C26.9301529,29.318821,26.7597427,29.324192,26.5932388,29.324192z M19.5087662,15.893527     c-0.0063477,1.2919931,0.1352539,5.1694345,1.909668,8.0166025c0.1162109,0.2177734,1.918457,3.6279297,5.5551758,3.4013672     c1.309082-0.0825195,2.5717773-0.671875,3.559082-1.659668c1.1835938-1.1831055,2.6489258-3.2192383,2.9111328-6.2001953     l0.0405273-2.2338867c-2.0073242-0.3603516-6.8520508-1.5722666-10.1884766-5.2221689     C22.5658951,12.9736052,21.3198013,14.4369841,19.5087662,15.893527z"/></g><g><path d="M26.5932388,29.324192c-4.6015625,0-6.8188477-4.2441406-6.9145508-4.4311523     c-2.4467773-3.918457-2.1699219-9.3227549-2.1572266-9.5512705c0.0166016-0.2895508,0.1586914-0.5581055,0.3886719-0.7353516     c2.9946289-2.3041992,4.4287109-4.7514648,4.4428711-4.7763672c0.1689453-0.2919922,0.4746094-0.4799805,0.8115234-0.4985352     c0.3334961-0.0253906,0.6611328,0.1333008,0.8613281,0.4057617c3.565918,4.855957,10.5063477,5.6196289,10.5761719,5.6269531     c0.5170898,0.0527344,0.9077148,0.4936523,0.8979492,1.0136728l-0.0600586,3.1801758     c-0.3183594,3.6489258-2.0751953,6.090332-3.4931641,7.5078125c-1.331543,1.3325195-3.0522461,2.128418-4.84375,2.2412109     C26.9301529,29.318821,26.7597427,29.324192,26.5932388,29.324192z M19.5087662,15.893527     c-0.0063477,1.2919931,0.1352539,5.1694345,1.909668,8.0166025c0.1162109,0.2177734,1.918457,3.6279297,5.5551758,3.4013672     c1.309082-0.0825195,2.5717773-0.671875,3.559082-1.659668c1.1835938-1.1831055,2.6489258-3.2192383,2.9111328-6.2001953     l0.0405273-2.2338867c-2.0073242-0.3603516-6.8520508-1.5722666-10.1884766-5.2221689     C22.5658951,12.9736052,21.3198013,14.4369841,19.5087662,15.893527z"/></g></g><g><path d="M26.5297623,35.9692116h-0.1699219c-1.7265625,0-3.4438477-0.5610352-5.1044922-1.6679688    c-0.2451172-0.1669922-0.449707-0.3173828-0.6328125-0.4575195c-0.3242188-0.2553711-0.7290039-0.3754883-1.1308594-0.3388672    c-7.3085928,0.6025391-8.9345694-5.3710938-8.999999-5.6259766c-0.1152344-0.4458008,0.0893555-0.9130859,0.4951172-1.1308594    c0.4067383-0.2192383,0.9082031-0.1303711,1.2163086,0.2119141c0.8823242,0.9804688,1.5498047,0.8852539,1.5766602,0.8823242    c0.0727539-0.0195313,0.1035156-0.0200195,0.1782227-0.0224609c0.3105469-0.0097656,0.4648438-0.0791016,0.4892578-0.1201172    c0.1259766-0.2128906-0.0424805-0.9414063-0.2695313-1.3886719c-4.1806641-7.78125-2.5717773-13.1015635-2.5009766-13.3242197    C15.6782007,1.3183322,26.3285904,1.9736056,26.4340591,1.9819064l0.0957031-0.0029297    c0.0336914-0.0058594,10.6918945-0.6582031,14.6860352,10.9858398c0.078125,0.2446289,1.6870117,5.5649424-2.5048828,13.3671885    c-0.2402344,0.4838867-0.3745117,1.1733398-0.2583008,1.3681641c0.0244141,0.0410156,0.1787109,0.1098633,0.4887695,0.1196289    c0.0615234,0.0019531,0.1230469,0.0097656,0.1835938,0.0229492c0.0654297,0.0097656,0.7202148,0.0629883,1.5717773-0.8828125    c0.309082-0.3422852,0.8110352-0.4301758,1.2163086-0.2119141c0.4057617,0.2177734,0.6103516,0.6850586,0.4951172,1.1308594    c-0.0654297,0.2548828-1.6953125,6.2333984-8.9907227,5.6269531c-0.4189453-0.0375977-0.8120117,0.0791016-1.128418,0.3286133    c-0.3442383,0.2714844-0.9150391,0.6787109-1.6806641,1.0732422    C29.2992935,35.6098366,27.9223404,35.9692116,26.5297623,35.9692116z M19.6459732,31.4975319    c0.7949219,0,1.5693359,0.2666016,2.203125,0.7666016c0.1450195,0.1103516,0.3203125,0.2402344,0.5234375,0.378418    c1.3183594,0.878418,2.6625977,1.3266602,3.9873047,1.3266602h0.1699219c1.059082,0,2.1181641-0.2797852,3.1479492-0.831543    c0.6376953-0.3291016,1.097168-0.6557617,1.3725586-0.8735352c0.7202148-0.5673828,1.6220703-0.831543,2.5405273-0.7509766    c2.6791992,0.2260742,4.362793-0.6655273,5.3891602-1.6762695c-0.0708008-0.0058594-0.1318359-0.0131836-0.1816406-0.0214844    c-1.2045898-0.0610352-1.7880859-0.6264648-2.0664063-1.0957031c-0.7558594-1.2749023,0.0390625-2.9833984,0.2060547-3.3129883    c3.7724609-7.0214844,2.3916016-11.7734385,2.3769531-11.8208017C35.8422623,3.4623752,26.9799576,3.948215,26.6010513,3.9765353    l-0.2412109,0.0024414c-0.4467773-0.0273438-9.3012695-0.5195313-12.7841787,9.6342773    c-0.0053711,0.0200195-1.3862305,4.7719736,2.375,11.7724619c0.1782217,0.3505859,0.9731436,2.0585938,0.2172842,3.3334961    c-0.2783194,0.4697266-0.8618155,1.0351563-2.0668936,1.0961914c-0.0493164,0.0078125-0.1098633,0.015625-0.1796875,0.0209961    c1.0273438,1.0112305,2.703124,1.8994141,5.3959951,1.6762695C19.4267349,31.5024147,19.5365982,31.4975319,19.6459732,31.4975319    z M26.5932388,29.324192c-4.6015625,0-6.8188477-4.2441406-6.9145508-4.4311523    c-2.4467773-3.918457-2.1699219-9.3227549-2.1572266-9.5512705c0.0166016-0.2895508,0.1586914-0.5581055,0.3886719-0.7353516    c2.9946289-2.3041992,4.4287109-4.7514648,4.4428711-4.7763672c0.1689453-0.2919922,0.4746094-0.4799805,0.8115234-0.4985352    c0.3334961-0.0253906,0.6611328,0.1333008,0.8613281,0.4057617c3.565918,4.855957,10.5063477,5.6196289,10.5761719,5.6269531    c0.5170898,0.0527344,0.9077148,0.4936523,0.8979492,1.0136728l-0.0600586,3.1801758    c-0.0004883,0.0229492-0.0019531,0.0458984-0.0039063,0.0683594c-0.3144531,3.5805664-2.0712891,6.0219727-3.4892578,7.4394531    c-1.331543,1.3325195-3.0522461,2.128418-4.84375,2.2412109C26.9301529,29.318821,26.7597427,29.324192,26.5932388,29.324192z     M19.5087662,15.893527c-0.0063477,1.2919931,0.1352539,5.1694345,1.909668,8.0166025    c0.1162109,0.2177734,1.918457,3.6279297,5.5551758,3.4013672c1.309082-0.0825195,2.5717773-0.671875,3.559082-1.659668    c1.1787109-1.1787109,2.6381836-3.2036133,2.9082031-6.1665039l0.0424805-2.2675781    c-2.0073242-0.3603516-6.8510742-1.5727549-10.1875-5.2221689C22.5658951,12.9736052,21.3198013,14.4369841,19.5087662,15.893527z     M34.4399185,19.5390358h0.0097656H34.4399185z"/></g><g><path d="M48.9999771,50.0292702h-46c-0.3164063,0-0.6142578-0.1499023-0.8032227-0.4042969    c-0.1884766-0.2539063-0.2456055-0.5825195-0.1538086-0.8857422l1.991699-6.5771484    c0.7416992-6.7841797,12.3808594-6.2182617,13.6206055-6.1362305c1.4643555-0.1484375,2.4750977-0.5415039,2.9257813-1.1396484    c0.315918-0.4189453,0.3081055-0.9018555,0.2460938-1.2329102c-0.0742188-0.3955078,0.0961914-0.7963867,0.4316406-1.0185547    c0.3354492-0.2211914,0.7709961-0.2207031,1.105957,0.0024414c1.3261719,0.8837891,2.6704102,1.3320313,3.9951172,1.3320313    h0.1699219c1.059082,0,2.1181641-0.2797852,3.1479492-0.831543c0.3100586-0.1665039,0.6850586-0.1572266,0.9858398,0.0234375    c0.3017578,0.1806641,0.4863281,0.5063477,0.4863281,0.8579102c0,1.3886719,1.7231445,1.859375,3.2036133,2.0068359    c1.2304688-0.0786133,12.8813477-0.6499023,13.621582,6.1367188l1.9824219,6.578125    c0.0913086,0.3027344,0.0336914,0.6308594-0.1547852,0.8847656    C49.6137466,49.8793678,49.3163834,50.0292702,48.9999771,50.0292702z M4.3476338,48.0292702H47.654274l-1.6220703-5.3818359    c-0.0195313-0.0644531-0.0322266-0.1303711-0.0380859-0.1972656c-0.4663086-5.0981445-11.4677734-4.4291992-11.5805664-4.4238281    c-0.0556641,0.0048828-0.1108398,0.0039063-0.1660156-0.0014648c-3.0693359-0.284668-4.3120117-1.4995117-4.7993164-2.5922852    c-0.9560547,0.3564453-1.9335938,0.5366211-2.918457,0.5366211h-0.1699219c-1.2348633,0-2.4643555-0.2871094-3.6723633-0.8549805    c-0.1147461,0.3496094-0.2851563,0.6782227-0.5092773,0.9755859c-0.8178711,1.0849609-2.3032227,1.7363281-4.4145508,1.9350586    c-0.0556641,0.0053711-0.1113281,0.0063477-0.1674805,0.0014648c-0.1098633-0.0053711-11.1137695-0.6738281-11.5805664,4.4238281    c-0.0058594,0.0673828-0.019043,0.1337891-0.0385742,0.1987305L4.3476338,48.0292702z"/></g></g><text x="0" y="67" fill="#000000" font-size="5px" font-weight="bold" font-family="'Helvetica Neue', Helvetica, Arial-Unicode, Arial, Sans-serif">Created by Dinosoft Labs</text><text x="0" y="72" fill="#000000" font-size="5px" font-weight="bold" font-family="'Helvetica Neue', Helvetica, Arial-Unicode, Arial, Sans-serif">from the Noun Project</text></svg>